<svg id="Calque_1" data-name="Calque 1" xmlns="http://www.w3.org/2000/svg" xmlns:xlink="http://www.w3.org/1999/xlink" viewBox="0 0 99.36 32"><defs><style>.cls-1,.cls-2{fill:none;}.cls-2{stroke:#f15622;stroke-miterlimit:10;stroke-width:0.24px;}.cls-3{fill:#00afd4;}.cls-4{clip-path:url(#clip-path);}.cls-5{fill:#fff;}.cls-6{fill:#f15622;}</style><clipPath id="clip-path"><path class="cls-1" d="M32.58,11.49c-.23,8.23-4,15.53-12.31,19s-15-.87-19.2-8.24C-2.52,15.91,3.37,3,12.05.62S32.82,3,32.58,11.49Z"/></clipPath></defs><title>Logo COZY</title><path class="cls-2" d="M26.9,5.23c6.82,6.64,5.64,15.58,2.5,22.34s-16.61,5-21.82-1.72C1.76,18.33-1,9.75,4,4.26S20.08-1.4,26.9,5.23Z"/><path class="cls-3" d="M32.58,11.49c-.23,8.23-4,15.53-12.31,19s-15-.87-19.2-8.24C-2.52,15.91,3.37,3,12.05.62S32.82,3,32.58,11.49Z"/><g class="cls-4"><path class="cls-5" d="M16.59,13.05A3,3,0,0,1,18,10.94a2,2,0,0,1,2.35.1l.05,0a1,1,0,0,1,.35.07c.88.43,1,1.5,1.21,2.34,0,0,0,0,0,0,.44-.4.71.24.72.6s-.19,1.14-.7,1.2a.09.09,0,0,0-.07.06,4,4,0,0,1-.39,1.19h0a7.05,7.05,0,0,1,.52-.63,1.62,1.62,0,0,1,2.37,0l.05,0a1.75,1.75,0,0,1,1.89,1,5.59,5.59,0,0,1,.45,2.64,3.72,3.72,0,0,0,.44,1.95c.15.25.31.5.46.76a3.93,3.93,0,0,1,.53,3.47c0,.07-.11.22-.24.47a0,0,0,0,0,0,.05,2.32,2.32,0,0,1,.33.53A30.74,30.74,0,0,1,29.9,31a6.41,6.41,0,0,1,.24,1.41,0,0,0,0,0,0,0H38a.1.1,0,0,1,.09,0l0,0a0,0,0,0,1,0,.05h-8s0,0,0,0a4.94,4.94,0,0,0-.14-1.14,29.81,29.81,0,0,0-1.53-4.5,2.82,2.82,0,0,0-.27-.48,0,0,0,0,0-.05,0h0c-.4.76-.76,1.32-.3,2.16a4.7,4.7,0,0,1,.8,1.89c0,.69-.39,1.34.12,2,0,0,0,.08,0,.1h0a0,0,0,0,1-.06,0,.84.84,0,0,0-.34-.31s0,0,0,0c0,.35-.33.11-.52.11H26a3.26,3.26,0,0,1-1.73-.44,2.27,2.27,0,0,1-1-1,11.47,11.47,0,0,1-.68-2.3c-.3-1.19-.47-2.43-.68-3.64a2.76,2.76,0,0,0-.08-.27s0,0,0,0a.89.89,0,0,0,0,.23,27.53,27.53,0,0,0,.45,3.37,13.11,13.11,0,0,0,.26,1.32c.11.45.53,2.21,0,2.47a.72.72,0,0,1-.36,0,25.42,25.42,0,0,1-3.37-.3L18,31.63a6.62,6.62,0,0,0-1.13-.22,1.15,1.15,0,0,0-.58.05c-.43.19-.87.37-1.3.54-.25.1-.66.24-.77,0a.11.11,0,0,1,0-.15,3.9,3.9,0,0,1,1.13-.44,4.27,4.27,0,0,1,.94-.14,3.63,3.63,0,0,0,.45-.1.27.27,0,0,0,.22-.31c-.1-1.28-.19-2.56-.35-3.83,0-.3-.09-.6-.16-.9,0-.14-.21-.64-.14-.78a.08.08,0,0,1,.11-.05.08.08,0,0,1,0,0,4.74,4.74,0,0,1,.52,1.85c.11.8.19,1.61.25,2.41a5.89,5.89,0,0,1,0,1.11,1.11,1.11,0,0,0-.07.43s0,0,0,0a2.39,2.39,0,0,0,.84.14l.05,0a2.63,2.63,0,0,0,.25-.27q.48-.68.9-1.38c.47-.82,1.33-1.46,1.63-2.38,0-.07,0-.08,0,0-.38.32-.82.54-1.2.87s-.5-.72-.5-.93a11.29,11.29,0,0,1,.54-4.27.07.07,0,0,1,.1,0h0c.24.15.43.75.54,1a12.89,12.89,0,0,1,.47,1.75h0s0,0,0,0a14.06,14.06,0,0,0-.46-1.89,8.22,8.22,0,0,1-.33-1.57s0,0,0,0a1.79,1.79,0,0,1-1,.07A4.61,4.61,0,0,0,17.83,22s0,0,0,0v0s0,0,0,0a2.78,2.78,0,0,0-.94.2l-.18.08a.09.09,0,0,1-.1,0v0c0-.28.94-.43,1.15-.45a0,0,0,0,0,0,0,9.07,9.07,0,0,1,.44-1.27,5.72,5.72,0,0,0,.3-.77,3.37,3.37,0,0,0-.05-2.42,3.37,3.37,0,0,0-.51-.57.17.17,0,0,0-.17,0,1.44,1.44,0,0,0-1,.71,34.35,34.35,0,0,1-1.52,3.39,4.6,4.6,0,0,0-.2.66c-.17.56.81.78,1.16.83.18,0,.19.09,0,.17a1.35,1.35,0,0,0-.62.67c-.12.31-.22.6-.3.85-.39,1.34-.82,2.86-1.27,4.53a17.17,17.17,0,0,0-.49,2.82,4.67,4.67,0,0,1-.15.84.91.91,0,0,1-.75.73,7,7,0,0,1-1.68.11c-1.23,0-2.43-.24-3.66-.31H6.94l-1.36.08a2.72,2.72,0,0,1-2.24-1c-.17-.2-.55-.78-.21-.92,0,0,0,0,0,0h0c-.11-.23-.31-.79,0-.89a.4.4,0,0,1,.29.05s0,0,0,0a1.87,1.87,0,0,1,0-.7c0-.25.35-.42.53-.19,0,0,0,0,0,0s.06-.11.1-.15a.32.32,0,0,1,.49,0c.54.54.87.88,1.65.84a.08.08,0,0,0,.07-.08s1.52.84,1.85,1a2.79,2.79,0,0,0,2.5.16l.63-.25s0,0,0,0a14.32,14.32,0,0,1,0-2.36,2.22,2.22,0,0,1,.15-.54c.08-.18.14-.35.19-.5a3.86,3.86,0,0,1,1.88-2.34.08.08,0,0,1,.11,0s0,0,0,0a.11.11,0,0,1,0,.07.21.21,0,0,1,0,.06c-.32.38-.72.76-1,1.1a9.89,9.89,0,0,0-.82,1.21.63.63,0,0,0-.07.5,0,0,0,0,0,0,0,6.83,6.83,0,0,0,1.87-.14c.43-.12.64-.94.75-1.4l.27-1.11a5.71,5.71,0,0,0,.1-2.08,2,2,0,0,0-.49-1.28,2.08,2.08,0,0,0-1.86-.76c-.31.09-.72.78-.89,1.06a24,24,0,0,0-1.59,3.21,7,7,0,0,1-.48.91c-.66,1.11-1.73,2.05-3.09,1.48C4.82,27.18,5.08,25.31,5.25,24c.09-.7.12-1.5.18-2.09a3.89,3.89,0,0,0,0-.67l0,0a3.56,3.56,0,0,0-.72-.15,8.66,8.66,0,0,0-2.42.21,2.09,2.09,0,0,0-.79.3,1.59,1.59,0,0,0-.6,1.08.58.58,0,0,0,0,.28,14.62,14.62,0,0,1,.5,1.9c.06.29.11.55.14.79a4,4,0,0,1,0,1.5c0,.06-.06.08-.13.07l0,0a4.87,4.87,0,0,1-.26-1.08C1,25.33.87,24.58.76,23.83a3.8,3.8,0,0,1,0-.89.62.62,0,0,0,0-.25c-.45-.9-1.25-.08-1.59.36a6.92,6.92,0,0,0-.84,1.43c-.31.66-.64,1.45-1,2.35a.33.33,0,0,0,.1.43.07.07,0,0,0,.06,0,.87.87,0,0,1,.55,0c1,.28,2.07.62,3.27,1a.1.1,0,0,1,.07.11v0a.08.08,0,0,1-.08.06h0c-.51-.11-1-.22-1.42-.34-.61-.16-1.17-.28-1.75-.41a2.66,2.66,0,0,1-.62-.23.07.07,0,0,0-.1,0,2.52,2.52,0,0,0-.37.73,7.36,7.36,0,0,0-.4,2.83,1.5,1.5,0,0,0,.28.77.05.05,0,0,1,0,.07h0l-3.56,0a0,0,0,0,1,0,0v0a0,0,0,0,1,0,0h3.4a1.8,1.8,0,0,1-.17-.51A7.08,7.08,0,0,1-3,27.93a1.67,1.67,0,0,1,.33-.54s0,0,0,0a.43.43,0,0,1-.15-.5c.11-.34.33-.9.66-1.7a11.78,11.78,0,0,1,1.1-2c.36-.54,1.26-1.51,1.85-.57,0,0,0,0,0,0a1.52,1.52,0,0,1,1.06-1.28,8.79,8.79,0,0,1,3-.29,4.54,4.54,0,0,1,.51.09,0,0,0,0,0,0,0h0c-.11-.29-.23-.56-.35-.84a1,1,0,0,1-.06-.71c.08-.18.22-.22.37-.06s0,0,0,0a6.11,6.11,0,0,1,.08-1.91,5.5,5.5,0,0,1,.51-1.3A3.38,3.38,0,0,1,7.9,15a4,4,0,0,1,2.71.3h0a0,0,0,0,0,0,0h0a1.17,1.17,0,0,1-.37-.95c-.07-1.48.13-4,1.53-4.87A1.73,1.73,0,0,1,14,9.4s0,0,0,0a.45.45,0,0,1,.3-.16c.61-.07.93.41,1.18.88a9.3,9.3,0,0,1,.86,2.09,6,6,0,0,1,.19.84ZM14.05,9.59s0,0,0,0a1.22,1.22,0,0,0-1.34-.41,2.62,2.62,0,0,0-1.76,1.58,8.52,8.52,0,0,0-.52,3.71c0,.8.66.79,1.17,1.23a2.53,2.53,0,0,1,.89,1.61l0,0s0,0,0,0a2.1,2.1,0,0,0-.1-.78A15.64,15.64,0,0,0,11.84,15c-.56-1.59-.71-4.37,1.25-5.17a1.11,1.11,0,0,1,1.18.17h.05c1.49-.15,2.05,3.48,2.12,4.44a5.62,5.62,0,0,1-.55,2.82,17.37,17.37,0,0,0-.78,2.29,4.51,4.51,0,0,1-.29.72c-.16.31-.38.11-.44-.12a3,3,0,0,1-.06-.84c0-.47.09-.93.15-1.39.11-.8-.42-.42-.83-.58l-.18-.11a.11.11,0,0,1,0-.16s0,0,.06,0,.33.05.5.06a1.58,1.58,0,0,0,1-.5,3.91,3.91,0,0,0,.67-3.5A3.32,3.32,0,0,0,14.22,11a.49.49,0,0,0-.28,0,1.29,1.29,0,0,0-1.16,1.3,10.84,10.84,0,0,0,0,1.51c0,.91.1,1.83.12,2.75a3.08,3.08,0,0,1-.16,1,1.48,1.48,0,0,0-.08.36,3.07,3.07,0,0,0,.08.84c.14.55.7.18,1,0,.67-.34.57,1.52.55,1.9s-.05.84.26.94h.06c.23-.09.46-.55.54-.79.35-1,.77-2,1.21-3a1.8,1.8,0,0,0,.08-.21,8.2,8.2,0,0,0,.26-1.9,13.69,13.69,0,0,0-.2-2.71,9.06,9.06,0,0,0-1-2.72c-.21-.39-.58-1-1.13-.86C14.19,9.41,14.15,9.51,14.05,9.59Zm.19.6a.92.92,0,0,0-.78-.28A2.12,2.12,0,0,0,12,11a5.1,5.1,0,0,0-.22,3.49c.16.6.54,1.42.71,2a2.84,2.84,0,0,1,.09.52.5.5,0,0,0,0,.19s0,0,0,0a6,6,0,0,0,.07-1.46c-.05-.58-.08-1.15-.1-1.73a8.78,8.78,0,0,1,.08-2A1.33,1.33,0,0,1,14,10.8a.58.58,0,0,1,.4.13,4.37,4.37,0,0,1,1.37,4.44,2.84,2.84,0,0,1-.43,1.05,1.86,1.86,0,0,1-1.4.85c-.14,0-.25-.09-.41-.06s0,0,0,0a.94.94,0,0,0,.47.09c.45,0,.65.14.59.61a8.62,8.62,0,0,0-.15,2.15.55.55,0,0,0,.13.27s0,0,0,0a1.48,1.48,0,0,0,.16-.25q.25-.69.51-1.59c.2-.72.65-1.58.83-2.22A7.17,7.17,0,0,0,16,12.66a7.64,7.64,0,0,0-.55-1.54c-.19-.37-.66-1.1-1.18-.92Zm7.84,3.43a.11.11,0,0,1-.16,0l0,0a6.89,6.89,0,0,0-.53-1.72c-.17-.29-.58-.7-1-.64,0,0,0,0,0,0l-.11-.1a1.81,1.81,0,0,0-2-.09,2.73,2.73,0,0,0-1.51,2.22.28.28,0,0,0,.05.22h0v0a2.65,2.65,0,0,1,1.62-2.05,1.68,1.68,0,0,1,1.69.13,1.15,1.15,0,0,0,.27.14,2.3,2.3,0,0,1,1.27,1.57,1.38,1.38,0,0,1,.09.39.11.11,0,0,1-.11.13h0c-.49-.05-.92-.79-1.17-1.16a1.32,1.32,0,0,0-.32-.39,1.43,1.43,0,0,0-1.48.25,1.27,1.27,0,0,0-.29.31,2.29,2.29,0,0,1-1.41.84,0,0,0,0,0,0,0,2.18,2.18,0,0,0,.1,1c.25.67.42,1.1.5,1.3a2.64,2.64,0,0,0,.48.79c.36.4,1.59,1.37,2.18,1.06a4.11,4.11,0,0,0,1.17-1.07,2.93,2.93,0,0,0,.51-1.33c0-.21.17-.21.34-.25a.48.48,0,0,0,.2-.19,1.36,1.36,0,0,0,.24-1c-.05-.14-.14-.39-.28-.43S22.15,13.56,22.08,13.62Zm-5.15-.2h0a2.08,2.08,0,0,0,1.24-.71l.33-.37A1.74,1.74,0,0,1,19.57,12a.85.85,0,0,1,.87.39c.29.39.63,1.09,1.12,1.24,0,0,0,0,0,0h0a2.58,2.58,0,0,0-.34-.91,1.63,1.63,0,0,0-1-.89.85.85,0,0,1-.25-.13,1.7,1.7,0,0,0-1.95.06,2.53,2.53,0,0,0-1.18,1.72Zm-.1,1a2.62,2.62,0,0,1-.06-.78.05.05,0,0,0,0-.06h0s0,0,0,0,0,.33,0,.51a12,12,0,0,1-.05,2.81,2.87,2.87,0,0,1-.11.52s0,0,0,0h0s0,0,0,0a1.55,1.55,0,0,1,1.16-.8s0,0,0,0A7.47,7.47,0,0,1,17,14.8,2.91,2.91,0,0,1,16.83,14.41ZM5.58,20.83a.06.06,0,0,1,.06.06h0a2.63,2.63,0,0,0,.08,1.25,7.52,7.52,0,0,0,.55,1.1,2.45,2.45,0,0,0,.44.57,2.58,2.58,0,0,0,1.57.57l.29,0a.08.08,0,0,1,.08.07.07.07,0,0,1,0,.05c-.27.36-1.07.28-1.43.09a3.9,3.9,0,0,1-1.37-1.18,0,0,0,0,0,0,0h0a1.83,1.83,0,0,0-.12.46,4.45,4.45,0,0,0,.39,2.88,1.4,1.4,0,0,0,1.13.67C8,27.34,8.72,26.22,9,25.61s.69-1.38,1-2.09a2.27,2.27,0,0,1,.26-.49c.47-.69,1-1.35,1.4-2.08a.52.52,0,0,0,.06-.16s0-.05,0-.05h0l-.18.11a.06.06,0,0,1-.08,0,0,0,0,0,1,0-.07A3.51,3.51,0,0,0,12.14,19a3.57,3.57,0,0,0-.38-2.47,2.53,2.53,0,0,0-.49-.62A4,4,0,0,0,9,15a3.93,3.93,0,0,0-2.6.89,3.54,3.54,0,0,0-.87,1.86,3.58,3.58,0,0,0-.07.78,4.1,4.1,0,0,0,0,.86s0,0,0,0a0,0,0,0,0,0,0,4.64,4.64,0,0,1,1.07-3,3.59,3.59,0,0,1,3.92-.56,2.38,2.38,0,0,1,1,.85,3.87,3.87,0,0,1,.15,3.58.81.81,0,0,1-.18.26.09.09,0,0,1-.13,0s0,0,0,0a.64.64,0,0,1,0-.2,3.56,3.56,0,0,0-.07-1.35,1.68,1.68,0,0,1-.24-1,.08.08,0,0,1,0,0h0s0,0,0,0a3,3,0,0,1-.9.3A4.83,4.83,0,0,1,7.72,18a1.54,1.54,0,0,1-.89-.77l0,0h0a2.19,2.19,0,0,0-.49,1.14,4.42,4.42,0,0,1-.5,1.47c-.17.16-.26,0-.33-.17s0,0,0,0a.65.65,0,0,1-.26-.17.08.08,0,0,0-.1,0,.05.05,0,0,0,0,0,.91.91,0,0,0,0,.59c.12.28.24.56.35.85,0,.06,0,.06.06,0l0-.09a.05.05,0,0,1,0,0Zm21.28,9.4a.1.1,0,0,1,0,.05h-.05a3.13,3.13,0,0,1-1.55-2.11c-.36-1.56.82-2.38,1.19-3.67a3.15,3.15,0,0,0-.07-1.94,1.82,1.82,0,0,0-.77-.83s0,0,0,0a1.81,1.81,0,0,1,.24.8,0,0,0,0,0,0,0l.12,0h0c.21.09.15.35.08.52a2.18,2.18,0,0,1-1.22,1.3,2.58,2.58,0,0,0-1.28.6.49.49,0,0,0-.07.41,17.45,17.45,0,0,0,1.16,3.86,1.59,1.59,0,0,0,.26.47,3.94,3.94,0,0,1,.52.57,4.14,4.14,0,0,1,.3.76,1.38,1.38,0,0,0,.59.7,2.48,2.48,0,0,0,1.4.21c.06,0,.13,0,.2,0s0,0,0,0l-.17-.47a.26.26,0,0,1,0-.15c0-.18,0-.37.08-.56a2.73,2.73,0,0,0-.59-1.63,2.17,2.17,0,0,1-.21-1.72c.09-.29.43-1.45.9-1.29,0,0,0,0,.05,0a2.67,2.67,0,0,0,.44-1.72,5.48,5.48,0,0,0-.87-2.32,3.61,3.61,0,0,1-.75-1.93c0-.56,0-1.11-.07-1.66a2.8,2.8,0,0,0-.86-2.09,1.43,1.43,0,0,0-1.34-.33,0,0,0,0,1-.06,0,1.49,1.49,0,0,0-2.29,0c-.63.72-1.17,1.48-1.74,2.18A2.2,2.2,0,0,0,20,20.35c0,.08.07.07.08,0A6.44,6.44,0,0,1,21.83,17c.48-.49,1.29-1,2-.55l.06,0c1.26-.07,1.95,1.17,2.14,2.24a5.5,5.5,0,0,1,.05.7,5,5,0,0,0,.58,2.18c.58,1.11,1.39,2.49,1,3.86a8,8,0,0,1-1,2,2.08,2.08,0,0,0,.21,2.69S26.87,30.21,26.86,30.23ZM11.1,17.63a.05.05,0,0,1,0,0,1.19,1.19,0,0,0,0,.62,4.87,4.87,0,0,0,.18.46,3.17,3.17,0,0,1,.1,1.53c0,.08,0,.09.07,0a.25.25,0,0,0,0-.07,4.12,4.12,0,0,0,.26-2.74c-.61-2.11-3.17-2.41-4.76-1.31a2.33,2.33,0,0,0-.82.93,5.71,5.71,0,0,0-.51,2.16c0,.15-.09.35,0,.48a0,0,0,0,0,.06,0s0,0,0,0a5.89,5.89,0,0,0,.49-1.54,2,2,0,0,1,.6-1.16,0,0,0,0,1,.06,0h0c.51,1.31,2.58,1.07,3.62.8a2.17,2.17,0,0,0,.54-.24ZM16,22.47h0c-.43-.06-1.21-.29-1.13-.87a1.91,1.91,0,0,1,.07-.3c0-.07,0-.08,0,0a2.47,2.47,0,0,1-.21.27c-.25.27-.51,0-.57-.23a1.64,1.64,0,0,1,0-.46c0-.45.13-1.68-.19-2a.14.14,0,0,0-.15,0c-.25.12-.77.45-1,.21s-.22-.91-.23-1.26a.13.13,0,0,0,0-.05c-.13-.16-.11-.28-.15-.47a2.44,2.44,0,0,0-1.14-1.68h0s0,0,0,0a2.47,2.47,0,0,1,.68.76,4.38,4.38,0,0,1,.34.68,4.85,4.85,0,0,1,.07,2.08,3.93,3.93,0,0,1-.53,1.48s0,0,0,0h0c.43,0-.26.95-.33,1-.34.48-.68,1-1,1.44a3.38,3.38,0,0,0-.27.5,20.44,20.44,0,0,1-.94,2A4.34,4.34,0,0,1,7.63,27.4a1.34,1.34,0,0,1-1.74-.69,3.86,3.86,0,0,1-.4-2,2.84,2.84,0,0,1,.24-1.4s0,0,0,0a.19.19,0,0,1,.19.07A2.69,2.69,0,0,0,8.11,24.6a3.58,3.58,0,0,1,.35-.09h0a2.64,2.64,0,0,1-1.56-.39,2.78,2.78,0,0,1-1-1.26c-.12-.24-.23-.47-.33-.71,0-.05,0-.05,0,0-.07.83-.15,1.66-.24,2.5-.13,1.22-.1,2.73,1.36,3.14,1.22.35,2.1-.57,2.68-1.54a7.72,7.72,0,0,0,.51-1,24.71,24.71,0,0,1,1.53-3.09c.23-.39.65-1.13,1.13-1.19a1.62,1.62,0,0,1,1,.17,2.31,2.31,0,0,1,1.36,1.7,6.52,6.52,0,0,1,0,1.92.07.07,0,0,0,0,.05s0,0,0,0a1,1,0,0,1,.05-.18c.15-.53.32-1.06.52-1.58.12-.33.34-.37.53-.61Zm7.75-5.89c-.54-.44-1.23-.07-1.68.35a6.06,6.06,0,0,0-1.85,3.24c0,.2,0,.2.08,0a19.94,19.94,0,0,1,1.08-1.84c.41-.63,1-1.13,1.75-.52a0,0,0,0,0,.05,0c.85-.35,1.23.37,1.41,1.06.14.54.29,1.09.44,1.63a2,2,0,0,0,.6,1.1,4.87,4.87,0,0,1,.5.4,2.9,2.9,0,0,1,.31,2.72c-.26.75-.82,1.37-1.07,2.13a2.92,2.92,0,0,0,1.05,3h0a0,0,0,0,0,0,0h0a2.25,2.25,0,0,1,.1-2.52l.59-1a3.14,3.14,0,0,0,.2-3A15.52,15.52,0,0,1,26,20.07c-.06-.35,0-.79-.09-1.17-.08-1-.85-2.46-2.07-2.3A.07.07,0,0,1,23.77,16.58Zm-2.67.6h0a3.07,3.07,0,0,1-.77.67c-.53.32-1.28-.14-1.71-.44,0,0-.05,0,0,0a4.13,4.13,0,0,1-.22,3,11,11,0,0,0-.52,1.4.05.05,0,0,0,0,0h0a7.48,7.48,0,0,1,1,.16A1.74,1.74,0,0,0,20,22s0,0,0,0a6.57,6.57,0,0,1,0-1.33.08.08,0,0,0,0-.05,1,1,0,0,1-.24-.65,2.56,2.56,0,0,1,.55-1.68l.8-1a0,0,0,0,0,0,0Zm2,.81a1.66,1.66,0,0,0-.14-.13c-.57-.4-1-.06-1.38.44s-.68,1.06-1,1.61a3.79,3.79,0,0,1-.37.59.41.41,0,0,0-.1.21,3.32,3.32,0,0,0,0,.64,6.11,6.11,0,0,0,.33,1.75,1.08,1.08,0,0,0,.31.48c.24.22.88.62,1.22.44,1-.46,2-.83,2.93-1.22.33-.13.1-.7.14-.95s.05-.42.24-.37c0,0,0,0,0,0a9.62,9.62,0,0,1-.77-2.38c-.15-.46-.32-1.18-.92-1.2a.87.87,0,0,0-.44.11A.06.06,0,0,1,23.12,18ZM25.2,23.5c-.06-.17.34-.63.46-.76a.11.11,0,0,0,0-.06,1.69,1.69,0,0,0-.38-1.05.06.06,0,0,0-.08,0l0,0a1.34,1.34,0,0,0,0,.49c0,.17.05.66-.16.74l-2.14.86a6.39,6.39,0,0,0-.74.34.81.81,0,0,1-.49.1,2,2,0,0,1-1.18-.76l0,0s0,0,0,0h0a13.37,13.37,0,0,1,.66,2.9,1.1,1.1,0,0,1,0,.63A.14.14,0,0,0,21,27a1.81,1.81,0,0,1-.38,1c-.29.41-.59.81-.92,1.19a3.72,3.72,0,0,0-.33.45c-.19.32-1,1.74-1.35,1.78-.14,0-.14,0,0,.08s.46.14.68.18A22.74,22.74,0,0,0,22.4,32c.59,0,.1-2,0-2.38s-.17-.73-.23-1.11c-.12-.68-.22-1.37-.32-2.05s-.29-1.69-.09-1.94a.07.07,0,0,1,.1,0,0,0,0,0,1,0,0,1.23,1.23,0,0,1,.12.37c.14.62.25,1.24.35,1.87a29.35,29.35,0,0,0,.79,3.46,2.39,2.39,0,0,0,.55,1,3.1,3.1,0,0,0,2,.89,12.84,12.84,0,0,1,2.32.1s0,0,0,0v-.09a0,0,0,0,0,0,0,1.42,1.42,0,0,0-.44-.05A1.76,1.76,0,0,1,26,31.71a1.65,1.65,0,0,1-.43-.6,2.42,2.42,0,0,0-.38-.88,3.74,3.74,0,0,1-.48-.49,7,7,0,0,1-.53-1.26,19.91,19.91,0,0,1-.83-3.05.86.86,0,0,1,0-.29c0-.55,1.11-.77,1.53-.91A2.32,2.32,0,0,0,26,22.9a.15.15,0,0,0,0-.18h0a.08.08,0,0,0-.11,0v0a2.48,2.48,0,0,1-.51.8.07.07,0,0,1-.1,0S25.2,23.51,25.2,23.5ZM20,23.23a1.2,1.2,0,0,0-.12-.23s0,0,0,0a7.52,7.52,0,0,0-.49,2.45,22.42,22.42,0,0,0,0,2.32,1.11,1.11,0,0,0,.07.26.07.07,0,0,0,.09.05l0,0a7.31,7.31,0,0,1,1-.71,1.42,1.42,0,0,0,.39-.37.08.08,0,0,0,0,0,3.26,3.26,0,0,0,0-.37A13.94,13.94,0,0,0,20,23.23ZM.89,23.15c0-.07,0-.07-.05,0a.91.91,0,0,0,0,.33q.24,1.79.6,3.45c0,.14,0,.13.05,0A12.34,12.34,0,0,0,.89,23.15ZM13.56,25v0s0,0,0,0A4.27,4.27,0,0,0,12,26.78h0s0,0,0,0a7.23,7.23,0,0,1,1.53-1.73S13.57,25.05,13.56,25Zm3.37,2.09a6.38,6.38,0,0,0-.35-1.45h0s0,0,0,0a8.79,8.79,0,0,1,.23,1.08c.12.83.21,1.73.28,2.7,0,.33.05.65.08,1h0s0,0,0,0h0A29.17,29.17,0,0,0,16.93,27.13Zm10.47,1a2.55,2.55,0,0,1,.52-1.85s0,0,0,0h0c-.34,0-.66,1-.73,1.29a2.49,2.49,0,0,0,.55,2.11,2,2,0,0,1,.21,1.45,1.34,1.34,0,0,0,.18.91.07.07,0,0,0,.05,0,.31.31,0,0,1,.12,0s0,0,0,0a2.44,2.44,0,0,1,0-.81,3,3,0,0,0,0-1.23C28.11,29.37,27.54,28.84,27.4,28.14ZM21,26.41a.88.88,0,0,0,0,.14m0,0a.33.33,0,0,0,0-.14c0-.07,0-.07,0,0ZM-.14,27.94l-.31-.11L-2,27.37a.88.88,0,0,0-.39,0s0,0,0,0a5.56,5.56,0,0,0,.82.25c.49.11,1,.22,1.5.35,0,0,0,0,0,0h0ZM5,30.66a.16.16,0,0,1-.16,0A1.51,1.51,0,0,1,4,29.42a.4.4,0,0,0-.18-.3.12.12,0,0,0-.14.05,1,1,0,0,0,0,.76,1.25,1.25,0,0,0,.2.4,6.85,6.85,0,0,0,.59.72,1.26,1.26,0,0,1,.15.2q.15.22-.12.15a1.72,1.72,0,0,1-.82-1.06c-.05-.15-.27-.32-.43-.24s0,.63.11.79l0,0a.22.22,0,0,1,.1.09,2.25,2.25,0,0,0,.81.69,1,1,0,0,1,.21.2c.06.12-.08.23-.19.19a2,2,0,0,1-.77-.52A3.74,3.74,0,0,1,3.21,31a0,0,0,0,0,0,0h0v0a.14.14,0,0,0,0,.11A2.58,2.58,0,0,0,4,32.25a2.23,2.23,0,0,0,1.29.48c.31,0,.81,0,1.21-.06a15.82,15.82,0,0,1,2.91.19,16.6,16.6,0,0,0,2.72.07c.71,0,1.06-.26,1.18-1,.08-.48.15-1,.23-1.67a14,14,0,0,1,.62-2.71.05.05,0,0,0,0,0h0a.69.69,0,0,1-.44.4,6.63,6.63,0,0,1-1.85.13c-.1,0-.21,0-.21-.16s0,0,0,0h0a2.63,2.63,0,0,0-.1.56c0,.65,0,1.29,0,1.94a1.23,1.23,0,0,0,0,.21s0,0,0,0c.2-.06.82-.2,1-.06a.09.09,0,0,1,0,.11s0,0,0,0a3.38,3.38,0,0,0-.64.19c-.17.08-.35.12-.43-.08a0,0,0,0,0-.05,0h0a3.49,3.49,0,0,1-2.68.32c-.3-.1-.68-.2-.81-.52S5.67,28.83,5.53,29a.11.11,0,0,0,0,.15h0c.3.12.6,0,.82.34s.06.38-.18.39a1.94,1.94,0,0,1-1.62-.8c-.1-.11-.27-.23-.39-.05a.37.37,0,0,0-.06.38A2.52,2.52,0,0,0,5,30.56a.05.05,0,0,1,0,.08A0,0,0,0,1,5,30.66Zm6.58.17s0,0,0,0l.39-.14a0,0,0,0,0,0,0v0h0l-.46.09s0,0,0,0h0Zm-7.24.34s0-.09-.12-.18S4,30.84,4,30.85s0,.1.12.19S4.32,31.19,4.33,31.17Zm12.7,0a.2.2,0,0,0-.08,0s0,0,0,0l.1,0s0,0,0,0v0S17.06,31.21,17,31.21ZM4.33,32l0-.07s0,0,0,0h0a5.63,5.63,0,0,0-.81-.53h0l0,0a6.31,6.31,0,0,0,.76.59h0Zm11.77-.6h0a1.62,1.62,0,0,0-.22,0,6.73,6.73,0,0,0-1.48.48s0,0,0,.07.09.05.17,0a10.5,10.5,0,0,0,1.5-.57Zm1.59,0s.1,0,.16,0,0,0,0,0Z"/></g><path class="cls-6" d="M48.33,10.59a.58.58,0,0,1,.32.43.69.69,0,0,1-.15.54.5.5,0,0,1-.36.22.91.91,0,0,1-.45-.09,5,5,0,0,0-1.13-.5A4.43,4.43,0,0,0,45.29,11a4.63,4.63,0,0,0-1.73.32,4,4,0,0,0-1.35.92,4.28,4.28,0,0,0-.89,1.41A4.9,4.9,0,0,0,41,15.43a5,5,0,0,0,.33,1.88,4.11,4.11,0,0,0,.92,1.41,3.92,3.92,0,0,0,1.35.89,4.66,4.66,0,0,0,1.69.3,4.71,4.71,0,0,0,1.25-.17,4.51,4.51,0,0,0,1.14-.51.71.71,0,0,1,.45-.08.52.52,0,0,1,.37.22.65.65,0,0,1,.16.53.64.64,0,0,1-.32.43,5.39,5.39,0,0,1-.9.43,9.22,9.22,0,0,1-1.06.3,5.86,5.86,0,0,1-3.26-.29,5.44,5.44,0,0,1-1.81-1.14,5,5,0,0,1-1.23-1.8,6,6,0,0,1-.45-2.4,5.88,5.88,0,0,1,.43-2.27,5.71,5.71,0,0,1,1.19-1.8,5.39,5.39,0,0,1,1.8-1.19,5.84,5.84,0,0,1,2.24-.42A6.24,6.24,0,0,1,46.9,10,5.11,5.11,0,0,1,48.33,10.59Z"/><path class="cls-6" d="M67,15.43a6.28,6.28,0,0,1-.4,2.28,5.56,5.56,0,0,1-1.12,1.82,5.13,5.13,0,0,1-1.7,1.21,5.62,5.62,0,0,1-4.31,0,5.13,5.13,0,0,1-1.7-1.21,5.56,5.56,0,0,1-1.12-1.82,6.83,6.83,0,0,1,0-4.55,5.56,5.56,0,0,1,1.12-1.82,5.13,5.13,0,0,1,1.7-1.21,5.62,5.62,0,0,1,4.31,0,5.13,5.13,0,0,1,1.7,1.21,5.56,5.56,0,0,1,1.12,1.82A6.27,6.27,0,0,1,67,15.43Zm-1.38,0a5.05,5.05,0,0,0-.51-2.3,3.93,3.93,0,0,0-1.41-1.58,4,4,0,0,0-4.15,0,3.91,3.91,0,0,0-1.41,1.57,5,5,0,0,0-.51,2.31,5.09,5.09,0,0,0,.51,2.31,3.93,3.93,0,0,0,1.41,1.58,4,4,0,0,0,4.15,0,3.93,3.93,0,0,0,1.41-1.58A5.09,5.09,0,0,0,65.62,15.43Z"/><path class="cls-6" d="M82.74,9.86a.74.74,0,0,1,.49.18.57.57,0,0,1,.21.46.6.6,0,0,1-.14.39l-6.85,9-.1-.12h6.33a.65.65,0,0,1,.46.18.56.56,0,0,1,.19.43.58.58,0,0,1-.19.45.69.69,0,0,1-.46.17H75.27a.63.63,0,0,1-.48-.21.58.58,0,0,1-.2-.43.6.6,0,0,1,.14-.39l6.85-9,.11.08H75.75a.63.63,0,0,1-.46-.17.58.58,0,0,1-.19-.45.56.56,0,0,1,.19-.44.66.66,0,0,1,.46-.16Z"/><path class="cls-6" d="M98.69,9.81a.62.62,0,0,1,.46.19.64.64,0,0,1,.18.45,1.23,1.23,0,0,1,0,.2.88.88,0,0,1-.09.2L95.52,16l.21-.78v5.13a.65.65,0,0,1-.18.46.59.59,0,0,1-.44.19.61.61,0,0,1-.47-.19.66.66,0,0,1-.19-.46v-5l.1.43L91,10.93a1.28,1.28,0,0,1-.14-.25.68.68,0,0,1,0-.23A.55.55,0,0,1,91,10a.74.74,0,0,1,.45-.18.63.63,0,0,1,.53.29l3.3,4.52-.3,0,3.15-4.46A.66.66,0,0,1,98.69,9.81Z"/></svg>